<?xml version="1.0" encoding="UTF-8" standalone="no"?>
<svg
   fill="none"
   height="75"
   viewBox="0 0 75 75"
   width="75"
   version="1.1"
   id="svg2"
   sodipodi:docname="raaf-icon.svg"
   inkscape:version="1.4.2 (ebf0e940, 2025-05-08)"
   xmlns:inkscape="http://www.inkscape.org/namespaces/inkscape"
   xmlns:sodipodi="http://sodipodi.sourceforge.net/DTD/sodipodi-0.dtd"
   xmlns:xlink="http://www.w3.org/1999/xlink"
   xmlns="http://www.w3.org/2000/svg"
   xmlns:svg="http://www.w3.org/2000/svg">
  <defs
     id="defs2">
    <linearGradient
       inkscape:collect="always"
       xlink:href="#rubyLight"
       id="linearGradient6"
       x1="122.55067"
       y1="167.11455"
       x2="490.20267"
       y2="534.76654"
       gradientTransform="scale(1.0444659,0.95742711)"
       gradientUnits="userSpaceOnUse" />
    <linearGradient
       id="rubyLight"
       x1="0"
       y1="0"
       x2="1"
       y2="1">
      <stop
         offset="0%"
         stop-color="#FC8181"
         id="stop1-2" />
      <stop
         offset="50%"
         stop-color="#F56565"
         id="stop2-36" />
      <stop
         offset="100%"
         stop-color="#E53E3E"
         id="stop3-5" />
    </linearGradient>
    <linearGradient
       inkscape:collect="always"
       xlink:href="#rubyMain"
       id="linearGradient7"
       x1="30.169889"
       y1="33.941124"
       x2="573.22791"
       y2="576.99915"
       gradientTransform="scale(1.0606602,0.94280904)"
       gradientUnits="userSpaceOnUse" />
    <linearGradient
       id="rubyMain"
       x1="0"
       y1="0"
       x2="1"
       y2="1">
      <stop
         offset="0%"
         stop-color="#E53E3E"
         id="stop4-5" />
      <stop
         offset="30%"
         stop-color="#C53030"
         id="stop5-8" />
      <stop
         offset="70%"
         stop-color="#9B2C2C"
         id="stop6-1" />
      <stop
         offset="100%"
         stop-color="#742A2A"
         id="stop7-4" />
    </linearGradient>
    <linearGradient
       id="rubyGradient1"
       x1="0.49812263"
       y1="2.4241018"
       x2="509.57962"
       y2="511.50558"
       gradientTransform="matrix(0.06957365,0,0,0.06905216,117.85568,146.28786)"
       gradientUnits="userSpaceOnUse">
    <stop
   offset="0%"
   stop-color="#E53E3E"
   id="stop1" />

    <stop
   offset="30%"
   stop-color="#C53030"
   id="stop2" />

    <stop
   offset="70%"
   stop-color="#9B2C2C"
   id="stop3" />

    <stop
   offset="100%"
   stop-color="#742A2A"
   id="stop4" />

  </linearGradient>
    <linearGradient
       inkscape:collect="always"
       xlink:href="#rubyLight"
       id="linearGradient15"
       x1="59.873199"
       y1="102.50997"
       x2="538.85876"
       y2="581.49554"
       gradientTransform="matrix(0.28281992,0,0,0.24752266,25.296221,51.712448)"
       gradientUnits="userSpaceOnUse" />
    <linearGradient
       inkscape:collect="always"
       xlink:href="#rubyMain"
       id="linearGradient16"
       x1="120.75602"
       y1="267.14468"
       x2="377.35165"
       y2="523.74036"
       gradientTransform="matrix(0.42068294,0,0,0.16640641,25.296221,51.712448)"
       gradientUnits="userSpaceOnUse" />
  </defs>
  <sodipodi:namedview
     id="namedview2"
     pagecolor="#ffffff"
     bordercolor="#000000"
     borderopacity="0.25"
     inkscape:showpageshadow="2"
     inkscape:pageopacity="0.0"
     inkscape:pagecheckerboard="0"
     inkscape:deskcolor="#d1d1d1"
     inkscape:zoom="11.093333"
     inkscape:cx="37.5"
     inkscape:cy="39.347957"
     inkscape:window-width="976"
     inkscape:window-height="1186"
     inkscape:window-x="888"
     inkscape:window-y="125"
     inkscape:window-maximized="0"
     inkscape:current-layer="svg2" />
  <clipPath
     id="a">
    <path
       d="m7.36609 24.1071h60.2678v21.4286h-60.2678z"
       id="path1" />
  </clipPath>
  <g
     id="g2"
     transform="matrix(0.34365027,0,0,0.34365027,0.27385667,-11.096385)">
    <path
       opacity="0.4"
       fill="url(#rubyLight)"
       d="M 128,160 V 512 H 512 V 160 Z m 176,144 c 0,35.3 -28.7,64 -64,64 -35.3,0 -64,-28.7 -64,-64 0,-35.3 28.7,-64 64,-64 35.3,0 64,28.7 64,64 z M 192,416 h 64 v 32 h -64 z m 96,0 h 64 v 32 H 288 Z M 464,304 c 0,35.3 -28.7,64 -64,64 -35.3,0 -64,-28.7 -64,-64 0,-35.3 28.7,-64 64,-64 35.3,0 64,28.7 64,64 z m -80,112 h 64 v 32 h -64 z"
       id="path7-9"
       style="fill:url(#linearGradient6)"
       transform="matrix(0.08035855,0,0,0.08035855,50.616874,138.55419)" />
    <path
       fill="url(#rubyMain)"
       d="M 336,48 V 32 h -32 v 96 H 96 V 544 H 544 V 128 H 336 Z M 304,160 H 512 V 512 H 128 V 160 Z M 192,416 v 32 h 64 v -32 z m 96,0 v 32 h 64 v -32 z m 96,0 v 32 h 64 V 416 Z M 272,304 c 0,17.7 -14.3,32 -32,32 -17.7,0 -32,-14.3 -32,-32 0,-17.7 14.3,-32 32,-32 17.7,0 32,14.3 32,32 z m -32,-64 c -35.3,0 -64,28.7 -64,64 0,35.3 28.7,64 64,64 35.3,0 64,-28.7 64,-64 0,-35.3 -28.7,-64 -64,-64 z m 160,96 c -17.7,0 -32,-14.3 -32,-32 0,-17.7 14.3,-32 32,-32 17.7,0 32,14.3 32,32 0,17.7 -14.3,32 -32,32 z m -64,-32 c 0,35.3 28.7,64 64,64 35.3,0 64,-28.7 64,-64 0,-35.3 -28.7,-64 -64,-64 -35.3,0 -64,28.7 -64,64 z M 64,272 V 256 H 32 v 160 h 32 z m 544,-16 h -32 v 160 h 32 z"
       id="path8-5"
       style="fill:url(#linearGradient7)"
       transform="matrix(0.08035855,0,0,0.08035855,50.616874,138.55419)" />
    <g
       id="g1">
      <path
         display="inline"
         fill="url(#rubyGradient1)"
         d="m 143.1742,173.10735 7.52975,6.68283 -14.8158,-1.16404 c 2.90266,-1.75361 5.29728,-3.84774 7.09023,-5.51497 0.0295,0.006 0.0608,0.008 0.0922,0.008 0.0343,-7e-5 0.0689,-7.9e-4 0.1035,-0.0119 z m 8.33391,3.99337 1.38681,-18.16297 c -0.68607,1.75249 -1.77142,3.79345 -3.17845,5.97277 z m -7.83031,-4.40598 7.51237,6.66757 -2.00561,-13.64519 c -1.65334,2.46101 -3.63856,4.97718 -5.50676,6.97762 z m -8.77464,6.50103 c -1.61812,0.89648 -3.28357,1.61046 -4.97019,2.13182 l 17.31328,-1.1643 -12.33748,-0.96913 z m -14.45887,-8.74898 4.53503,10.59717 3.73257,-12.36532 z m 9.36875,-2.39565 12.62746,4.05596 -3.22218,-12.76762 z m 10.11192,-9.97974 11.77124,-0.78793 -9.20334,-7.51679 z m 6.69552,-11.5812 -7.7243,-0.0349 3.43394,2.40445 z m -28.43313,19.46563 -0.25417,7.531 1.85265,-3.37898 z m 4.21993,3.02549 c 1.46833,0.0936 2.95155,-0.23172 4.44777,-0.88664 1.00791,-0.47764 2.05346,-1.08211 3.10294,-1.79263 1.50511,-1.06339 3.02199,-2.39349 4.55001,-3.90783 5.49593,-5.44679 7.75571,-11.53823 5.35409,-13.96362 -0.57308,-0.57834 -1.39345,-0.87395 -2.43896,-0.87853 -3.16481,-0.0142 -7.89503,2.36875 -11.92652,6.36579 -3.8528,3.81898 -6.35117,8.35189 -6.36454,11.5487 -0.006,1.13664 0.30977,2.03217 0.93454,2.66209 0.55565,0.56136 1.3452,0.78885 2.34067,0.85267 z m 11.4667,10.03449 c 0.17237,-0.0892 0.34401,-0.17924 0.51347,-0.27094 l -5.08213,-9.80576 -3.82487,12.66933 c 0.0321,-7.9e-4 0.29037,-0.0352 0.29037,-0.0352 0.33381,-0.0426 0.66353,-0.0914 0.98913,-0.1465 2.10142,-0.35829 4.1806,-1.01426 6.17951,-1.95041 0.31631,-0.14788 0.62732,-0.3017 0.93452,-0.46043 z m 10.37886,-8.08797 0.12052,-0.13834 c 0.0842,-0.0987 0.16892,-0.19927 0.25327,-0.30019 0,0 0.26118,-0.31092 0.36266,-0.43443 0.17084,-0.20658 0.34053,-0.41735 0.51089,-0.6293 0.15649,-0.19548 0.31262,-0.39154 0.46842,-0.59118 0.16357,-0.20939 0.32689,-0.41918 0.48906,-0.63309 0.36716,-0.48329 0.73839,-0.99007 1.13514,-1.54985 0.41983,-0.59219 0.82538,-1.18813 1.20714,-1.77325 l -0.68835,-0.42093 c -1.82783,-1.1177 -5.50132,-3.36901 -7.91567,-4.8521 l 3.12418,12.37888 c 0.29103,-0.31962 0.59831,-0.66714 0.93275,-1.05619 z m 8.82985,-19.9302 -9.71968,-1.36467 9.26624,7.57773 c 0.32555,-1.07409 0.53757,-2.11572 0.6299,-3.09822 0.0134,-0.13774 0.0218,-0.27621 0.03,-0.41573 0.008,-0.12837 0.0115,-0.25721 0.0153,-0.38636 0.0224,-0.83678 -0.0526,-1.61413 -0.22249,-2.31275 z m -3.73665,13.2936 c 0.0239,-0.0314 0.0505,-0.0667 0.0796,-0.10911 0.18499,-0.26194 0.4481,-0.69047 0.74068,-1.20666 0.81425,-1.43596 1.81865,-3.48322 2.23752,-4.99001 l -12.08891,0.80653 c 2.52151,1.54955 6.20491,3.8069 8.03623,4.927 l 0.97641,0.59594 c 0.006,-0.006 0.0115,-0.0155 0.0191,-0.0237 z m -14.49053,14.30511 0.0379,-0.0214 c 2.63704,-1.46138 4.99397,-3.25914 7.63421,-5.82827 l -12.85191,-4.14534 z m -16.96518,-3.75578 c 0.0568,1.67363 0.41192,3.05537 1.05642,4.11656 l 0.60008,-7.14703 z m 2.34167,-3.5027 -0.69244,8.24819 c 0.98659,1.29058 2.30476,1.86691 4.26467,1.86691 0.19739,0 0.4024,-0.005 0.62227,-0.0155 l -0.34621,-0.86031 c -0.7492,-1.86119 -2.88707,-7.17031 -3.84829,-9.23866 z m 32.70573,-20.84938 c -0.14252,-0.43592 -0.32436,-0.83839 -0.54138,-1.19952 -0.87556,-1.45661 -2.38794,-2.38859 -4.49636,-2.77083 l -4.71054,2.60137 z"
         id="path11"
         style="fill:url(#rubyGradient1);stroke-width:0.0693127">

</path>
      <path
         opacity="0.4"
         fill="url(#rubyLight)"
         d="m 42.229554,85.579114 v 97.366666 c 0,7.01146 5.688542,12.7 12.7,12.7 H 164.99622 c 7.01146,0 12.7,-5.68854 12.7,-12.7 v -73.13083 c -16.93333,9.68375 -33.86667,19.34104 -50.8,29.02479 v -29.02479 l -50.8,29.02479 V 85.552656 c 0,-4.683125 -3.783541,-8.466667 -8.466666,-8.466667 l -16.933333,0.02646 c -4.683125,0 -8.466667,3.783541 -8.466667,8.466665 z"
         id="path7"
         style="fill:url(#linearGradient15);stroke-width:0.264583" />
      <path
         fill="url(#rubyMain)"
         d="m 130.04476,108.01578 c 3.04271,-1.74625 4.10104,-5.60917 2.35479,-8.651874 -1.74625,-3.042709 -5.60916,-4.101042 -8.65187,-2.354792 L 76.09622,124.23474 v 14.63146 z m 50.8,0 c 3.04271,-1.74625 4.10104,-5.60917 2.35479,-8.651874 -1.74625,-3.042709 -5.60916,-4.101042 -8.65187,-2.354792 l -47.65146,27.225626 v 14.63146 z"
         id="path8"
         style="fill:url(#linearGradient16);stroke-width:0.264583" />
    </g>
  </g>
</svg>
